# xmcd
# 
# Track frame offsets:
#     150
#     7888
#     17522
#     25482
#     35892
#     45832
#     54961
#     64292
#     75557
#     84597
#     96118
#     107270
#     116882
#     127858
#     139602
#     151337
#     162680
#     174317
#     188212
#     199434
#     208231
#     220854
#     233379
#     246056
#     261034
#     275419
# 
# Disc length: 3880
# 
# Revision: 5
# Processed by: cddbd v1.5.2PL0 Copyright (c) Steve Scherf et al.
# Submitted via: fre:ac v1.0.31
# 
DISCID=5b0f261a
DTITLE=Dolly Parton - Dolly Disc 1
DYEAR=2009
DGENRE=Folk/Country
TTITLE0=Puppy Love
TTITLE1=Girl Left Alone
TTITLE2=Gonna Hurry (As Slow as I Can) [Demo]
TTITLE3=It's Sure Gonna Hurt
TTITLE4=The Love You Gave
TTITLE5=Nobody But You
TTITLE6=Busy Signal [Single Version]
TTITLE7=Don't Drop Out [Single Version]
TTITLE8=I've Known You All My Life
TTITLE9=Put It Off Until Tomorrow
TTITLE10=Dumb Blonde
TTITLE11=Something Fishy
TTITLE12=I Couldn't Wait Forever
TTITLE13=I'm Not Worth the Tears
TTITLE14=The Last Thing on My Mind
TTITLE15=False Eyelashes
TTITLE16=The Bridge
TTITLE17=Just Because I'm a Woman
TTITLE18=Holding On to Nothin'
TTITLE19=We'll Get Ahead Someday
TTITLE20=Jeannie's Afraid of the Dark
TTITLE21=In the Good Old Days (When Times Were Bad)
TTITLE22=Daddy
TTITLE23=Evening Shade
TTITLE24=Gypsy, Joe and Me
TTITLE25=My Blue Ridge Mountain Boy
EXTD=YEAR: 2009
EXTT0=
EXTT1=
EXTT2=
EXTT3=
EXTT4=
EXTT5=
EXTT6=
EXTT7=
EXTT8=
EXTT9=
EXTT10=
EXTT11=
EXTT12=
EXTT13=
EXTT14=
EXTT15=
EXTT16=
EXTT17=
EXTT18=
EXTT19=
EXTT20=
EXTT21=
EXTT22=
EXTT23=
EXTT24=
EXTT25=
PLAYORDER=
